<svg xmlns="http://www.w3.org/2000/svg" id="Layer_1" data-name="Layer 1" viewBox="0 0 1080 1080"><defs><style>.cls-1{font-size:140.5px;fill:#fb635e;font-family:ARCO-Typography-Regular, ARCO Typography;}.cls-2{fill:#69bf87;}.cls-12,.cls-3,.cls-5{fill:#ffd02a;}.cls-3{letter-spacing:0em;}.cls-4{letter-spacing:0em;}.cls-5{font-size:83.33px;font-family:Montserrat-Bold, Montserrat;font-weight:700;}.cls-6{letter-spacing:-0.05em;}.cls-7{letter-spacing:-0.02em;}.cls-8{letter-spacing:0em;}.cls-9{letter-spacing:-0.02em;}.cls-10{letter-spacing:-0.01em;}.cls-11{fill:#fc645f;}</style></defs><text class="cls-1" transform="translate(221.89 722.26)">Au<tspan class="cls-2" x="213.43" y="0">r</tspan><tspan x="309.4" y="0">o</tspan><tspan class="cls-3" x="421.91" y="0">r</tspan><tspan class="cls-4" x="517.89" y="0">a</tspan></text><text class="cls-5" transform="translate(338.46 829.72)"><tspan class="cls-6">T</tspan><tspan class="cls-7" x="46.92" y="0">o</tspan><tspan class="cls-8" x="100.25" y="0">y s</tspan><tspan class="cls-9" x="217.9" y="0">t</tspan><tspan x="252.74" y="0">o</tspan><tspan class="cls-10" x="307.32" y="0">r</tspan><tspan x="342.48" y="0">e</tspan></text><path class="cls-11" d="M353.53,565.78a315.37,315.37,0,0,1,2.79-40.28l-.89,6.64A299.57,299.57,0,0,1,376,456.34l-2.52,6a264,264,0,0,1,33.66-58.08l-3.91,5.06a228.81,228.81,0,0,1,40.63-40.93l-5.06,3.91a222.2,222.2,0,0,1,48.86-28.48l-6,2.52a217.6,217.6,0,0,1,55-15.11l-6.65.89a196.66,196.66,0,0,1,52-.12l-6.65-.89a177.39,177.39,0,0,1,44.55,12.11l-6-2.52A182.78,182.78,0,0,1,654,364.15l-5.06-3.91a207.28,207.28,0,0,1,36.86,37.07l-3.91-5.06A249.53,249.53,0,0,1,714,447.71l-2.52-6a284.8,284.8,0,0,1,19.42,71.59l-.9-6.65A283.87,283.87,0,0,1,732.49,549a25.6,25.6,0,0,0,7.32,17.67c4.34,4.34,11.45,7.61,17.68,7.33,6.46-.29,13.17-2.42,17.67-7.33A26.3,26.3,0,0,0,782.49,549a313.24,313.24,0,0,0-8-74.48,302.09,302.09,0,0,0-25.74-70.15,255.18,255.18,0,0,0-42.4-59.66A234.69,234.69,0,0,0,676.66,319a182.2,182.2,0,0,0-28.34-17.34A207.23,207.23,0,0,0,609.67,287a216.61,216.61,0,0,0-42.28-6.43,199.07,199.07,0,0,0-37.09,1.47c-14.32,1.88-28.36,4.46-42.16,8.79-25.56,8-50.23,20-71.73,36.07a255.32,255.32,0,0,0-32.9,28.71A282.69,282.69,0,0,0,355.94,390c-15.73,22.88-27.67,48.49-36.34,74.83a332.3,332.3,0,0,0-15.4,81.84q-.63,9.55-.67,19.14a25.74,25.74,0,0,0,7.32,17.67c4.34,4.34,11.45,7.6,17.68,7.33,6.46-.29,13.17-2.42,17.68-7.33a26.1,26.1,0,0,0,7.32-17.67Z"/><path class="cls-12" d="M493.1,584.33l87.8-7.22,24.88-2.05c3.94-.33,7.49-1.42,10.37-4.3a14.88,14.88,0,0,0,4.29-10.37c-.17-3.79-1.41-7.73-4.29-10.37s-6.53-4.62-10.37-4.3L518,553l-24.88,2c-4,.33-7.49,1.42-10.37,4.3a14.91,14.91,0,0,0-4.3,10.37c.17,3.8,1.42,7.73,4.3,10.38,2.73,2.5,6.53,4.61,10.37,4.29Z"/><path class="cls-11" d="M482.54,569.56c-11.21-23.51-6.35-53.72,11.66-72.52s48-24.94,71.95-14.74,40.31,36.07,39.24,62.09"/><path class="cls-11" d="M750.13,346c-.32.83-.68,1.67-1,2.49A89.61,89.61,0,0,1,744,358.57v0h0a87.22,87.22,0,0,1-10.85,14.83,81.43,81.43,0,0,1-7.1,6.92L576.28,310.71A86.07,86.07,0,0,1,582,281.27,95.81,95.81,0,0,1,598.85,253c12.36-14.39,28.9-25.13,47.41-29.45,39.09-9.14,83.16,11.35,101.37,47.14C759.4,293.78,759.65,321.88,750.13,346Z"/><path class="cls-11" d="M698.51,383.09A341.57,341.57,0,0,1,756,401.48L752.45,400a342.14,342.14,0,0,1,52.19,27.55c6.46,4.16,16.47,1.53,20.06-5.26a15,15,0,0,0-5.26-20.07A355.08,355.08,0,0,0,732,361.63q-12.71-3.92-25.69-6.83a15.5,15.5,0,0,0-11.3,1.48,14.89,14.89,0,0,0-6.74,8.77c-.86,3.75-.67,8,1.47,11.3,2,3.13,5,5.9,8.77,6.74Z"/><path class="cls-2" d="M750.31,346.05l-1.21,2.39L744,358.57v0h0l-10.85,14.83L582,281.27A95.81,95.81,0,0,1,598.85,253l151.28,93Z"/></svg>