<svg id="Layer_1" data-name="Layer 1" xmlns="http://www.w3.org/2000/svg" viewBox="0 0 1080 1080"><defs><style>.cls-1{fill:#fc645f;}.cls-2{fill:#ffd02a;}.cls-3{fill:#69bf87;}</style></defs><path class="cls-1" d="M292.27,726.49a438.76,438.76,0,0,1,3.87-55.88l-1.23,9.22a416,416,0,0,1,28.48-105.17l-3.49,8.28a365.59,365.59,0,0,1,46.7-80.57l-5.43,7a317.31,317.31,0,0,1,56.37-56.79l-7,5.43a307.79,307.79,0,0,1,67.79-39.52L470,422a302.33,302.33,0,0,1,76.26-21l-9.22,1.24a273,273,0,0,1,72.12-.17L600,400.87a246.43,246.43,0,0,1,61.8,16.81l-8.29-3.5a253.31,253.31,0,0,1,55.66,32.57l-7-5.42a288.21,288.21,0,0,1,51.15,51.43l-5.43-7a346,346,0,0,1,44.52,76.94l-3.5-8.28a394.13,394.13,0,0,1,26.94,99.32l-1.23-9.22A394.73,394.73,0,0,1,818,703.21c-.15,8.8,4,18.34,10.16,24.52,6,6,15.88,10.55,24.52,10.16,9-.4,18.27-3.35,24.53-10.16s10-15.07,10.15-24.52a433.81,433.81,0,0,0-11.13-103.32,418.16,418.16,0,0,0-35.72-97.33,353.42,353.42,0,0,0-58.82-82.77c-12.61-13.16-26.54-24.76-41.15-35.64a251.68,251.68,0,0,0-39.32-24,286.62,286.62,0,0,0-53.62-20.36A299.75,299.75,0,0,0,589,330.82a276.68,276.68,0,0,0-51.46,2c-19.86,2.62-39.34,6.2-58.48,12.19-35.46,11.12-69.69,27.81-99.52,50-16.26,12.13-31.67,25.11-45.64,39.84a392.26,392.26,0,0,0-38.26,47.65c-21.82,31.74-38.38,67.28-50.41,103.82s-18.83,75.09-21.36,113.54q-.89,13.26-.94,26.55A35.76,35.76,0,0,0,233.06,751c6,6,15.89,10.55,24.53,10.16,9-.4,18.27-3.35,24.52-10.16s10.11-15.11,10.16-24.52Z"/><path class="cls-2" d="M485.91,752.23l121.81-10,34.51-2.84c5.48-.46,10.4-2,14.39-6,3.53-3.53,6.19-9.33,6-14.4-.23-5.26-2-10.72-6-14.39-3.79-3.47-9.06-6.39-14.39-6l-121.81,10-34.51,2.84c-5.48.45-10.4,2-14.39,6-3.53,3.53-6.19,9.32-6,14.39.23,5.26,2,10.72,6,14.39,3.79,3.48,9.06,6.4,14.39,6Z"/><path class="cls-1" d="M471.26,731.73c-15.56-32.6-8.82-74.52,16.18-100.6s66.58-34.61,99.82-20.45,55.92,50,54.44,86.13"/><path class="cls-1" d="M842.5,421.5c-.44,1.16-.93,2.33-1.42,3.47A128.09,128.09,0,0,1,834,439l0,0v0a120.9,120.9,0,0,1-15,20.57,114.64,114.64,0,0,1-9.85,9.61L601.3,372.62a119.36,119.36,0,0,1,7.9-40.84,132.62,132.62,0,0,1,23.43-39.28c17.15-20,40.09-34.87,65.76-40.87C752.64,239,813.77,267.38,839,317,855.37,349.13,855.72,388.12,842.5,421.5Z"/><path class="cls-1" d="M770.89,473a475,475,0,0,1,79.7,25.5l-4.86-2.05a475.54,475.54,0,0,1,72.39,38.22c9,5.78,22.87,2.13,27.85-7.3a20.8,20.8,0,0,0-7.3-27.84,492.48,492.48,0,0,0-121.32-56.31q-17.62-5.43-35.64-9.47a21.51,21.51,0,0,0-15.68,2c-4.22,2.47-8.25,7.31-9.35,12.16-1.19,5.21-.93,11.06,2.05,15.69,2.79,4.33,7,8.18,12.16,9.35Z"/><path class="cls-3" d="M842.75,421.64,841.08,425,834,439l0,0v0l-15,20.57L609.2,331.78a132.62,132.62,0,0,1,23.43-39.28l209.87,129Z"/></svg>